<?xml version="1.0" standalone="no"?>
<!DOCTYPE svg PUBLIC "-//W3C//DTD SVG 20010904//EN"
 "http://www.w3.org/TR/2001/REC-SVG-20010904/DTD/svg10.dtd">
<svg version="1.0" xmlns="http://www.w3.org/2000/svg"
 width="700.000000pt" height="700.000000pt" viewBox="0 0 700.000000 700.000000"
 preserveAspectRatio="xMidYMid meet">
<metadata>
Created by potrace 1.11, written by Peter Selinger 2001-2013
</metadata>
<g transform="translate(0.000000,700.000000) scale(0.100000,-0.100000)"
fill="#000000" stroke="none">
<path d="M3405 6815 c-295 -43 -521 -229 -617 -505 -29 -85 -33 -115 -33 -250
1 -133 13 -193 61 -298 87 -191 257 -342 459 -409 71 -24 96 -27 220 -27 119
-1 151 3 215 22 242 75 423 253 506 497 23 67 28 100 30 205 3 140 -13 226
-66 337 -112 240 -352 410 -605 429 -38 3 -74 7 -80 8 -5 1 -46 -3 -90 -9z"/>
<path d="M1689 6374 c-145 -44 -190 -230 -82 -338 111 -110 299 -59 340 94 42
151 -106 290 -258 244z"/>
<path d="M545 6154 c-141 -25 -252 -82 -353 -182 -120 -120 -182 -257 -188
-417 -7 -186 55 -345 185 -475 85 -85 154 -127 268 -167 67 -22 95 -26 198
-26 104 -1 130 3 196 25 280 98 451 339 444 627 -4 174 -62 309 -185 432 -157
158 -352 221 -565 183z"/>
<path d="M2215 5381 c-90 -41 -134 -121 -119 -218 13 -90 109 -173 199 -173
60 0 137 42 170 92 40 60 45 146 12 208 -48 93 -168 134 -262 91z"/>
<path d="M905 4518 c-146 -16 -319 -81 -450 -167 -225 -148 -392 -404 -440
-674 -20 -114 -21 -2545 -1 -2647 50 -248 174 -463 358 -616 148 -124 351
-210 544 -230 84 -8 5098 -8 5175 1 289 32 573 207 733 450 71 107 110 192
143 311 l28 99 2 1270 c2 1360 3 1350 -48 1503 -48 146 -139 295 -248 403 -70
69 -171 149 -189 149 -5 0 -12 4 -14 9 -5 13 -146 76 -221 100 -150 46 -71 44
-2752 45 -1402 1 -2581 -2 -2620 -6z m1670 -1043 c49 -5 358 -54 440 -69 11
-2 40 -7 65 -11 25 -4 54 -9 65 -11 41 -8 203 -34 256 -41 85 -11 164 -7 304
17 137 22 157 26 219 35 21 4 48 8 60 11 33 6 197 34 231 39 46 6 98 15 120
19 48 9 155 19 210 19 297 -1 577 -117 790 -327 222 -219 338 -498 336 -807 0
-94 -15 -231 -26 -249 -2 -4 -7 -22 -10 -41 -8 -45 -73 -207 -96 -241 -11 -14
-19 -30 -19 -35 0 -14 -112 -162 -161 -213 -176 -182 -370 -283 -654 -339 -51
-10 -300 -8 -345 3 -14 3 -70 13 -125 22 -83 13 -190 31 -355 60 -14 2 -68 11
-120 20 -52 8 -108 18 -125 20 -54 10 -205 12 -243 4 -20 -5 -61 -11 -91 -14
-29 -4 -57 -8 -60 -11 -4 -2 -29 -6 -57 -9 -27 -4 -83 -13 -124 -21 -41 -8
-93 -17 -115 -20 -52 -7 -273 -44 -305 -51 -14 -3 -81 -7 -150 -9 -208 -6
-346 24 -530 113 -339 166 -562 474 -625 867 -3 22 -6 88 -6 146 -1 301 114
581 326 794 193 195 433 309 700 332 39 3 71 7 73 8 3 3 68 -2 147 -10z"/>
<path d="M2458 3076 c-1 -2 -37 -6 -79 -9 -87 -7 -212 -48 -294 -98 -68 -40
-179 -145 -222 -209 -53 -78 -94 -174 -108 -247 -3 -16 -7 -39 -10 -53 -7 -30
-7 -174 -1 -210 11 -71 19 -99 44 -164 65 -167 199 -309 365 -386 166 -78 296
-84 627 -27 113 19 221 38 240 41 19 3 44 7 55 10 11 2 69 11 129 21 59 9 118
19 130 21 11 3 71 7 131 8 101 3 139 1 265 -19 25 -4 54 -8 65 -10 11 -1 34
-5 50 -8 17 -3 46 -8 65 -11 19 -3 73 -12 120 -20 47 -8 101 -17 120 -20 19
-3 98 -17 175 -30 228 -39 361 -29 510 39 93 42 148 80 216 147 94 95 179 250
195 356 3 20 8 45 11 56 6 22 5 171 -2 206 -48 248 -184 434 -390 536 -115 56
-218 77 -349 71 -61 -3 -122 -8 -136 -10 -14 -3 -41 -8 -60 -11 -19 -3 -44 -7
-55 -10 -11 -2 -45 -7 -75 -12 -30 -4 -57 -8 -60 -9 -3 -1 -27 -5 -55 -10 -27
-4 -59 -9 -70 -11 -11 -2 -87 -15 -170 -29 -82 -13 -168 -27 -190 -31 -59 -10
-251 -7 -320 5 -33 6 -73 13 -90 15 -26 4 -168 28 -245 41 -14 2 -83 14 -155
25 -133 21 -161 26 -205 35 -14 3 -52 7 -85 11 -33 3 -65 7 -72 9 -6 2 -13 2
-15 1z"/>
</g>
</svg>
