<svg height="367pt" viewBox="0 -6 367.24595 367" width="367pt" xmlns="http://www.w3.org/2000/svg"><path d="m309.058594 72.902344c19.175781 5.632812 32.59375 17.40625 32.59375 22.152344 0 4.746093-13.671875 16.710937-33.101563 22.34375l-59.859375-10.761719zm0 0" fill="#24ae5f"/><path d="m266.777344 105.625c12.710937-4.730469 24.179687-12.285156 33.546875-22.089844 3.261719-3.238281 6.1875-6.800781 8.734375-10.632812 13.226562-19.429688 15.1875-41.515625 11.390625-45.25-3.605469-3.671875-24.808594-1.898438-43.859375 10.441406zm0 0" fill="#4fba6f"/><path d="m134.058594 289.359375c.765625 1.402344 1.59375 2.808594 2.421875 4.085937 3.035156 4.917969 6.472656 9.578126 10.28125 13.925782.578125.789062 1.214843 1.535156 1.898437 2.234375 44.789063 44.789062 121.164063 63.921875 174.382813 21.632812 24.808593-19.816406 40.523437-48.839843 43.550781-80.445312 2.804688-33.800781-9.300781-68.984375-25.644531-98.101563 0-.0625-.0625-.125-.0625-.1875zm0 0" fill="#cb9080"/><path d="m277.160156 70.246094c.796875-5.40625 1.199219-10.863282 1.199219-16.332032.003906-5.320312-.589844-10.628906-1.769531-15.820312-4.875-22.027344-18.417969-37.976562-23.542969-37.976562-5.445313 0-20.316406 17.914062-24.304687 41.835937l33.734374 70.34375zm0 0" fill="#24ae5f"/><path d="m267.179688 106.847656c-20.179688-65.375-78.058594-110.316406-142.304688-105.019531-75.589844 6.195313-131.191406 79.550781-124.296875 163.878906 6.828125 83.246094 71.949219 146.007813 146.203125 141.664063zm0 0" fill="#cb9080"/><g fill="#7f5b53"><path d="m119.804688 95.164062c0-7.050781-8.574219-12.765624-19.152344-12.765624s-19.152344 5.714843-19.152344 12.765624c0 7.050782 8.574219 12.765626 19.152344 12.765626s19.152344-5.714844 19.152344-12.765626zm0 0"/><path d="m183.425781 90.566406c0-7.046875-8.574219-12.761718-19.152343-12.761718-10.578126 0-19.152344 5.714843-19.152344 12.761718 0 7.050782 8.574218 12.765625 19.152344 12.765625 10.578124 0 19.152343-5.714843 19.152343-12.765625zm0 0"/><path d="m146.578125 52.265625c0-7.050781-8.574219-12.765625-19.152344-12.765625s-19.152343 5.714844-19.152343 12.765625c0 7.046875 8.574218 12.765625 19.152343 12.765625s19.152344-5.71875 19.152344-12.765625zm0 0"/></g><path d="m76.734375 256.496094c-1.246094 0-2.46875-.367188-3.503906-1.0625-1.667969-1.105469-40.832031-27.847656-47.46875-87.554688-.386719-3.476562 2.117187-6.605468 5.589843-6.992187 3.472657-.382813 6.605469 2.117187 6.992188 5.59375 5.984375 53.890625 41.546875 78.1875 41.917969 78.421875 2.320312 1.546875 3.355469 4.433594 2.542969 7.105468-.808594 2.667969-3.273438 4.492188-6.0625 4.488282zm0 0" fill="#fdd7ad"/><path d="m38.4375 122.433594c-3.496094 0-6.328125-2.832032-6.328125-6.328125 0-34.902344 21.070313-49.367188 21.96875-49.953125 1.878906-1.261719 4.285156-1.425782 6.316406-.429688s3.375 3 3.527344 5.257813c.152344 2.253906-.910156 4.421875-2.785156 5.683593-.773438.53125-16.367188 11.71875-16.367188 39.441407-.003906 3.496093-2.835937 6.328125-6.332031 6.328125zm0 0" fill="#fdd7ad"/><path d="m202.753906 322.269531c-24.953125.921875-48.972656-9.53125-65.296875-28.421875-16.84375-20.464844-21.589843-49.269531-13.03125-79.019531 8.980469-28.664063 26.335938-53.984375 49.828125-72.703125 25.34375-21.714844 57.316406-34.171875 90.671875-35.324219 24.949219-.921875 48.96875 9.535157 65.296875 28.425781 33.410156 40.609376 17.246094 107.246094-36.796875 151.726563-25.347656 21.710937-57.320312 34.164063-90.671875 35.316406zm0 0" fill="#f5efca"/><path d="m300.324219 243.15625c-13.417969-8.417969-40.316407-8.226562-68.355469 1.773438-31.203125 11.136718-53.671875 30.757812-55.253906 46.898437-7.589844-3.070313-14.304688-7.960937-19.554688-14.242187-23.925781-29.050782-9.050781-80.886719 33.289063-115.757813 42.34375-34.875 96.140625-39.496094 120.0625-10.382813 18.863281 22.976563 13.609375 60-10.1875 91.710938zm0 0" fill="#f9eab0"/><path d="m300.324219 243.15625c-6.714844 8.910156-14.46875 16.984375-23.101563 24.050781-33.101562 27.277344-73.164062 36.011719-100.507812 24.621094 1.582031-16.140625 24.050781-35.761719 55.253906-46.898437 28.039062-10 54.9375-10.191407 68.355469-1.773438zm0 0" fill="#fac176"/></svg>