<svg id="Capa_1" enable-background="new 0 0 512 512" height="512" viewBox="0 0 512 512" width="512" xmlns="http://www.w3.org/2000/svg"><g><path d="m323.555 287.948-53.947 8.991c-9.028 1.505-18.186 1.505-27.215 0l-53.947-8.991c-32.177-5.365-61.446 19.472-61.446 52.052 0 32.565 29.248 57.415 61.446 52.052 59.094-9.849 58.602-10.12 67.554-10.12 9.099 0 8.917.347 67.555 10.12 32.12 5.358 61.445-19.417 61.445-52.052 0-32.564-29.247-57.417-61.445-52.052z"/><path d="m437 181h-362c-41.355 0-75 33.645-75 75v168c0 41.355 33.645 75 75 75h362c41.355 0 75-33.645 75-75v-168c0-41.355-33.645-75-75-75zm-118.377 240.644-53.947-8.991c-5.758-.959-11.595-.96-17.351 0l-53.948 8.991c-24.046 4.009-48.506-2.73-67.108-18.489-38.974-33.016-39.063-93.22 0-126.311 18.602-15.758 43.063-22.498 67.108-18.489l53.947 8.991c5.757.959 11.593.959 17.351 0l53.947-8.991c50.39-8.393 96.378 30.451 96.378 81.645 0 51.285-46.08 90.03-96.377 81.644z"/><path d="m48 155c25.916 0 47-21.084 47-47s-21.084-47-47-47c-25.935 0-48 20.96-48 47 0 26.039 22.064 47 48 47z"/><path d="m256 123c30.327 0 55-24.673 55-55s-24.673-55-55-55-55 24.673-55 55 24.673 55 55 55z"/><path d="m153.29 134.93c1.669 8.04 9.275 13.346 17.64 11.78 8.168-1.703 13.323-9.397 11.78-17.64-1.845-8.847-10.636-13.934-19.07-11.42-8.026 2.616-11.703 10.093-10.35 17.28z"/><path d="m113.29 62.93c1.684 8.116 9.35 13.332 17.64 11.78 8.153-1.7 13.326-9.382 11.78-17.64-1.877-8.999-10.855-13.92-19.06-11.42-7.736 2.466-11.758 9.853-10.36 17.28z"/></g></svg>