<svg id="Capa_1" enable-background="new 0 0 512 512" height="512" viewBox="0 0 512 512" width="512" xmlns="http://www.w3.org/2000/svg"><g><path d="m437 181h-362c-41.355 0-75 33.645-75 75v168c0 41.355 33.645 75 75 75h362c41.355 0 75-33.645 75-75v-168c0-41.355-33.645-75-75-75zm45 243c0 24.813-20.187 45-45 45h-362c-24.813 0-45-20.187-45-45v-168c0-24.813 20.187-45 45-45h362c24.813 0 45 20.187 45 45z"/><path d="m318.623 258.356-53.947 8.991c-5.758.959-11.594.959-17.351 0l-53.947-8.991c-50.38-8.4-96.378 30.45-96.378 81.644 0 51.084 45.886 90.061 96.377 81.644l53.948-8.991c5.756-.96 11.593-.959 17.351 0 59.008 9.835 58.58 10.125 67.608 10.124 45.43-.002 82.716-36.873 82.716-82.777 0-51.081-45.877-90.057-96.377-81.644zm4.932 133.696-53.947-8.991c-8.886-1.481-18.04-1.529-27.214 0l-53.947 8.991c-15.333 2.554-30.926-1.741-42.785-11.788-24.849-21.05-24.905-59.432 0-80.529 11.859-10.047 27.452-14.344 42.785-11.788l53.947 8.991c9.029 1.505 18.187 1.505 27.215 0l53.947-8.991c32.122-5.352 61.444 19.412 61.444 52.053 0 32.69-29.373 57.402-61.445 52.052z"/><path d="m48 155c25.916 0 47-21.084 47-47s-21.084-47-47-47c-25.935 0-48 20.96-48 47 0 26.039 22.064 47 48 47zm0-64c9.374 0 17 7.626 17 17s-7.626 17-17 17c-9.589 0-18-7.944-18-17s8.411-17 18-17z"/><path d="m256 123c30.327 0 55-24.673 55-55s-24.673-55-55-55-55 24.673-55 55 24.673 55 55 55zm0-80c13.785 0 25 11.215 25 25s-11.215 25-25 25-25-11.215-25-25 11.215-25 25-25z"/><path d="m153.29 134.93c1.669 8.04 9.275 13.346 17.64 11.78 8.168-1.703 13.323-9.397 11.78-17.64-1.845-8.847-10.636-13.934-19.07-11.42-8.026 2.616-11.703 10.093-10.35 17.28z"/><path d="m113.29 62.93c1.684 8.116 9.35 13.332 17.64 11.78 8.153-1.7 13.326-9.382 11.78-17.64-1.877-8.999-10.855-13.92-19.06-11.42-7.736 2.466-11.758 9.853-10.36 17.28z"/></g></svg>